<svg width="26" height="16" viewBox="0 0 26 16" fill="none" xmlns="http://www.w3.org/2000/svg">
<path fill-rule="evenodd" clip-rule="evenodd" d="M23.5644 11.7817C23.228 10.7469 22.2741 9.99084 21.1366 9.99084C20.0007 9.99084 19.0452 10.7469 18.7105 11.7817H18.3351L18.5415 8.85761H24.3135L24.0682 11.7817H23.5644ZM21.1366 13.5136C21.005 13.5136 20.8815 13.4857 20.7677 13.4348C20.4411 13.2905 20.2104 12.9625 20.2104 12.5788C20.2104 12.2344 20.4054 11.9441 20.6832 11.7817C20.8197 11.703 20.9676 11.644 21.1366 11.644C21.3056 11.644 21.4551 11.703 21.5916 11.7817C21.8695 11.9441 22.0645 12.2344 22.0645 12.5788C22.0645 12.9625 21.8338 13.2905 21.5055 13.4348C21.3934 13.4857 21.2682 13.5136 21.1366 13.5136ZM20.3631 4.27875L23.0411 7.20286H18.6585L18.8665 4.27875H20.3631ZM16.6922 11.7817H10.7528C10.4164 10.7469 9.46086 9.99084 8.32497 9.99084C7.18746 9.99084 6.23195 10.7469 5.89719 11.7817H4.99206L5.71032 1.65311H17.4105L16.6922 11.7817ZM8.32497 13.5136C8.19335 13.5136 8.06985 13.4857 7.95609 13.4348C7.62784 13.2905 7.39709 12.9625 7.39709 12.5788C7.39709 12.2344 7.59209 11.9441 7.86997 11.7817C8.00647 11.703 8.15597 11.644 8.32497 11.644C8.49397 11.644 8.64348 11.703 8.77998 11.7817C9.05623 11.9441 9.25123 12.2344 9.25123 12.5788C9.25123 12.9625 9.02048 13.2905 8.69385 13.4348C8.5801 13.4857 8.4566 13.5136 8.32497 13.5136ZM21.3235 2.89131C21.1675 2.72239 20.9497 2.62563 20.7206 2.62563H18.9835L19.107 0.883957C19.1248 0.655998 19.0452 0.431318 18.8908 0.262399C18.7348 0.0951197 18.5187 0 18.2912 0H4.94818C4.51918 0 4.16167 0.334559 4.13242 0.767517L3.29554 12.5492C3.27929 12.7772 3.35729 13.0035 3.51329 13.1724C3.66604 13.3397 3.88542 13.4348 4.1113 13.4348H5.91507C6.2677 14.4401 7.21021 15.1667 8.32497 15.1667C9.43974 15.1667 10.3822 14.4401 10.7333 13.4348H17.4543H18.7267C19.0793 14.4401 20.0219 15.1667 21.1366 15.1667C22.253 15.1667 23.1939 14.4401 23.5465 13.4348H24.8189C25.2463 13.4348 25.5989 13.1068 25.6363 12.6788L25.9971 8.39349C26.0166 8.16225 25.9386 7.93265 25.7826 7.76209L21.3235 2.89131ZM2.32816 3.3487H1.87641C1.42303 3.3487 1.0574 3.71934 1.0574 4.17526C1.0574 4.63282 1.42303 5.00182 1.87641 5.00182H2.32816C2.78155 5.00182 3.14717 4.63282 3.14717 4.17526C3.14717 3.71934 2.78155 3.3487 2.32816 3.3487ZM15.2159 5.00231H9.11229C8.65891 5.00231 8.29328 4.63167 8.29328 4.17575C8.29328 3.71819 8.65891 3.3492 9.11229 3.3492H15.2159C15.6692 3.3492 16.0349 3.71819 16.0349 4.17575C16.0349 4.63167 15.6692 5.00231 15.2159 5.00231ZM7.39042 8.85728H11.1133C11.5651 8.85728 11.9324 8.48664 11.9324 8.03072C11.9324 7.57317 11.5651 7.20417 11.1133 7.20417H7.39042C6.93704 7.20417 6.57141 7.57317 6.57141 8.03072C6.57141 8.48664 6.93704 8.85728 7.39042 8.85728ZM0.817385 7.20367H2.1369C2.59028 7.20367 2.95591 7.57431 2.95591 8.03023C2.95591 8.48779 2.59028 8.85679 2.1369 8.85679H0.817385C0.365629 8.85679 0 8.48779 0 8.03023C0 7.57431 0.365629 7.20367 0.817385 7.20367Z" fill="black"/>
</svg>
